<?xml version="1.0" encoding="utf-8"?>
<!-- Generator: Adobe Illustrator 16.0.0, SVG Export Plug-In . SVG Version: 6.00 Build 0)  -->
<!DOCTYPE svg PUBLIC "-//W3C//DTD SVG 1.1//EN" "http://www.w3.org/Graphics/SVG/1.1/DTD/svg11.dtd">
<svg version="1.1" id="Layer_1" xmlns="http://www.w3.org/2000/svg" xmlns:xlink="http://www.w3.org/1999/xlink" x="0px" y="0px"
	 width="250px" height="250px" viewBox="24 85 250 250" enable-background="new 24 85 250 250" xml:space="preserve">
<title>Slice 1</title>
<description>CSS SVG Logo source http://jaspreetchahal.org</description>
<g id="Page_1">
	<g id="Layer_1_1_">
		<path id="Shape" fill="#131313" d="M190.992,112.849h-12.348l12.841,13.934v6.632h-26.449v-7.765h12.839l-12.839-13.934v-6.642
			h25.956V112.849L190.992,112.849z M159.794,112.849h-12.348l12.84,13.934v6.632h-26.448v-7.765h12.839l-12.839-13.934v-6.642
			h25.956V112.849L159.794,112.849z M128.901,113.164h-13.324v12.16h13.324v8.09h-22.794v-28.341h22.794V113.164L128.901,113.164z"
			/>
		<path id="Shape_1_" fill="#1572B6" d="M87.951,298.208l-13.54-151.855H223.18l-13.552,151.831l-60.924,16.89L87.951,298.208z"/>
		<path id="Shape_2_" fill="#33A9DC" d="M148.797,302.163l49.228-13.647l11.582-129.746h-60.81V302.163z"/>
		<g id="Group" transform="translate(55.000000, 142.000000)">
			<path id="Shape_3_" fill="#FFFFFF" d="M93.796,71.786h24.645l1.702-19.072H93.796V34.089h0.065h46.636l-0.446,4.997
				l-4.577,51.323H93.796V71.786z"/>
			<path id="Shape_4_" fill="#EBEBEB" d="M93.908,120.154l-0.082,0.022l-20.742-5.601l-1.327-14.854H61.679h-8.617l2.609,29.242
				l38.15,10.591l0.086-0.024V120.154z"/>
			<path id="Shape_5_" fill="#FFFFFF" d="M116.859,89.621l-2.243,24.942l-20.772,5.606v19.377l38.18-10.582l0.28-3.146l3.24-36.197
				H116.859z"/>
			<path id="Shape_6_" fill="#EBEBEB" d="M93.861,34.089v11.567v7.011v0.046H48.933h-0.06L48.5,48.528l-0.848-9.441l-0.446-4.997
				H93.861z"/>
			<path id="Shape_7_" fill="#EBEBEB" d="M93.796,71.788v11.567v7.011v0.046h-20.42h-0.06l-0.373-4.186l-0.85-9.441l-0.445-4.997
				H93.796z"/>
		</g>
	</g>
</g>
</svg>
